<svg width="182" height="52" viewBox="0 0 182 52" fill="none" xmlns="http://www.w3.org/2000/svg">
<path d="M53.8976 30.8455H41.6942L43.9615 34.7747H28.2432L26.3491 38.0582H45.8569L47.7953 41.4227H35.5944L41.6942 52H53.8976L60 41.4227L53.8976 30.8455Z" fill="#FF4C00"/>
<path d="M18.3058 51.9997L24.4069 41.4225H19.8722L27.732 27.7972L25.8392 24.515L16.0853 41.4225H12.2035L18.3058 30.8452H6.10236L0 41.4225L6.10236 51.9997H18.3058Z" fill="#FF4C00"/>
<path d="M17.7972 10.5773L23.8983 21.1495L26.1644 17.2215L34.0242 30.8454H37.8124L28.0585 13.9393L29.9994 10.5773L36.1005 21.1495L42.2028 10.5773L36.1005 0H23.8983L17.7972 10.5773Z" fill="#FF4C00"/>
<path d="M91.2731 10.0016L81.9771 32H78.1465L69 10.0016H72.5042L80.0775 28.4032L87.7099 10.0016H91.2731Z" fill="white"/>
<path d="M98.7573 31.9997H95.7277V16.7249H98.7573V31.9997Z" fill="white"/>
<path d="M116.843 31.9997H104.103V28.9328L112.21 19.7619H104.4V16.7249H116.249V19.7619L108.142 28.9328H116.843V31.9997Z" fill="white"/>
<path d="M140.809 16.8719L133.235 25.8658L125.722 16.8719V31.9997H122.544V13.0969L119.961 10H124.148L133.205 20.7929L142.382 10H146.569L143.985 13.0969V31.9997H140.807V16.8719H140.809Z" fill="white"/>
<path d="M154.499 26.5141V28.9328H164.15V31.9997H151.469V16.7249H163.586V19.7619H154.499V23.4771C155.835 22.7104 157.529 22.5919 159.31 22.5919H161.568V25.629H159.31C156.489 25.629 155.836 25.806 154.499 26.5141Z" fill="white"/>
<path d="M181.999 19.7619H176.208V31.9997H173.15V19.7619H167.566V16.7249H182V19.7619H181.999Z" fill="white"/>
</svg>
