<svg width="44" height="45" viewBox="0 0 44 45" fill="none" xmlns="http://www.w3.org/2000/svg">
<path d="M8.34998 38.2499C8.34998 38.2499 15.7 35.0999 17.8 32.9999C19.9 30.8999 13.6 30.8999 13.6 20.3999C13.6 9.8999 22 9.8999 22 9.8999C22 9.8999 30.4 9.8999 30.4 20.3999C30.4 30.8999 24.1 30.8999 26.2 32.9999C28.3 35.0999 35.65 38.2499 35.65 38.2499" stroke="#45494E" stroke-width="2" stroke-linecap="round"/>
<path fill-rule="evenodd" clip-rule="evenodd" d="M22 43.5C33.598 43.5 43 34.098 43 22.5C43 10.902 33.598 1.5 22 1.5C10.402 1.5 1 10.902 1 22.5C1 34.098 10.402 43.5 22 43.5Z" stroke="#45494E" stroke-width="2"/>
</svg>
